<svg width="202" height="148" viewBox="0 0 202 148" fill="none" xmlns="http://www.w3.org/2000/svg">
<rect y="18.652" width="202" height="110.417" fill="white"/>
<path fill-rule="evenodd" clip-rule="evenodd" d="M50.9043 94.3354H124.432C124.848 94.3354 125.254 94.2947 125.644 94.2176C126.035 94.2947 126.44 94.3354 126.856 94.3354H168.872C171.996 94.3354 174.528 92.0436 174.528 89.2167C174.528 86.3897 171.996 84.098 168.872 84.098H164.024C160.901 84.098 158.368 81.8063 158.368 78.9793C158.368 76.1524 160.901 73.8606 164.024 73.8606H179.376C182.5 73.8606 185.032 71.5689 185.032 68.742C185.032 65.915 182.5 63.6233 179.376 63.6233H161.6C164.724 63.6233 167.256 61.3316 167.256 58.5046C167.256 55.6776 164.724 53.3859 161.6 53.3859H109.888C113.012 53.3859 115.544 51.0942 115.544 48.2672C115.544 45.4403 113.012 43.1486 109.888 43.1486H63.8323C60.7086 43.1486 58.1763 45.4403 58.1763 48.2672C58.1763 51.0942 60.7086 53.3859 63.8323 53.3859H31.5123C28.3886 53.3859 25.8563 55.6776 25.8563 58.5046C25.8563 61.3316 28.3886 63.6233 31.5123 63.6233H51.7123C54.8361 63.6233 57.3683 65.915 57.3683 68.742C57.3683 71.5689 54.8361 73.8606 51.7123 73.8606H19.3923C16.2686 73.8606 13.7363 76.1524 13.7363 78.9793C13.7363 81.8063 16.2686 84.098 19.3923 84.098H50.9043C47.7806 84.098 45.2483 86.3897 45.2483 89.2167C45.2483 92.0436 47.7806 94.3354 50.9043 94.3354ZM182.608 94.3354C185.732 94.3354 188.264 92.0436 188.264 89.2167C188.264 86.3897 185.732 84.098 182.608 84.098C179.485 84.098 176.952 86.3897 176.952 89.2167C176.952 92.0436 179.485 94.3354 182.608 94.3354Z" fill="#F0F8E6"/>
<path d="M139.381 44.5079V49.3559" stroke="#88C537" stroke-width="2.5" stroke-linecap="round" stroke-linejoin="round"/>
<path d="M139.381 55.8198V60.6678" stroke="#88C537" stroke-width="2.5" stroke-linecap="round" stroke-linejoin="round"/>
<path d="M131.301 52.5878H136.149" stroke="#88C537" stroke-width="2.5" stroke-linecap="round" stroke-linejoin="round"/>
<path d="M142.613 52.5878H147.461" stroke="#88C537" stroke-width="2.5" stroke-linecap="round" stroke-linejoin="round"/>
<path d="M72.3161 127.732V130.964" stroke="#88C537" stroke-width="2.5" stroke-linecap="round" stroke-linejoin="round"/>
<path d="M72.3161 137.428V140.66" stroke="#88C537" stroke-width="2.5" stroke-linecap="round" stroke-linejoin="round"/>
<path d="M65.8516 134.196H69.0836" stroke="#88C537" stroke-width="2.5" stroke-linecap="round" stroke-linejoin="round"/>
<path d="M75.5469 134.196H78.7789" stroke="#88C537" stroke-width="2.5" stroke-linecap="round" stroke-linejoin="round"/>
<path fill-rule="evenodd" clip-rule="evenodd" d="M129.855 114.098C130.979 112.722 131.989 111.283 132.885 109.793C134.856 106.517 136.277 102.998 137.145 99.3692C138.024 95.6993 138.337 91.9178 138.083 88.1639C137.861 84.8882 137.207 81.6336 136.12 78.4923C135.041 75.3758 133.536 72.371 131.603 69.5681C130.451 67.8979 129.147 66.2994 127.691 64.7917C125.553 62.5781 123.208 60.6857 120.717 59.1156C118.04 57.4285 115.193 56.1136 112.253 55.1723C108.57 53.9934 104.739 53.4003 100.908 53.396C97.9268 53.3927 94.9455 53.7457 92.0332 54.4565C88.7546 55.2567 85.5634 56.5103 82.5587 58.2191C79.9174 59.7214 77.4202 61.5754 75.1343 63.7826C72.2617 66.5563 69.9349 69.683 68.1558 73.0292C66.4141 76.3053 65.1975 79.7919 64.508 83.3636C63.7976 87.0435 63.6467 90.8138 64.0574 94.5375C64.5898 99.364 66.0656 104.112 68.4897 108.484C70.0407 111.282 71.98 113.925 74.3088 116.336C78.0057 120.164 82.3218 123.032 86.9445 124.933C92.5661 127.245 98.6411 128.127 104.607 127.57C109.615 127.103 114.546 125.621 119.068 123.118" fill="white"/>
<path d="M129.855 114.098C130.979 112.722 131.989 111.283 132.885 109.793C134.856 106.517 136.277 102.998 137.145 99.3692C138.024 95.6993 138.337 91.9178 138.083 88.1639C137.861 84.8882 137.207 81.6336 136.12 78.4923C135.041 75.3758 133.536 72.371 131.603 69.5681C130.451 67.8979 129.147 66.2994 127.691 64.7917C125.553 62.5781 123.208 60.6857 120.717 59.1156C118.04 57.4285 115.193 56.1136 112.253 55.1723C108.57 53.9934 104.739 53.4003 100.908 53.396C97.9268 53.3927 94.9455 53.7457 92.0332 54.4565C88.7546 55.2567 85.5634 56.5103 82.5587 58.2191C79.9174 59.7214 77.4202 61.5754 75.1343 63.7826C72.2617 66.5563 69.9349 69.683 68.1558 73.0292C66.4141 76.3053 65.1975 79.7919 64.508 83.3636C63.7976 87.0435 63.6467 90.8138 64.0574 94.5375C64.5898 99.364 66.0656 104.112 68.4897 108.484C70.0407 111.282 71.98 113.925 74.3088 116.336C78.0057 120.164 82.3218 123.032 86.9445 124.933C92.5661 127.245 98.6411 128.127 104.607 127.57C109.615 127.103 114.546 125.621 119.068 123.118" stroke="#6AB705" stroke-width="2.5" stroke-linecap="round" stroke-linejoin="round"/>
<path fill-rule="evenodd" clip-rule="evenodd" d="M121.766 121.574C124.114 120.062 126.202 118.177 127.56 116.655L121.766 121.574Z" fill="white"/>
<path d="M121.766 121.574C124.114 120.062 126.202 118.177 127.56 116.655" stroke="#6AB705" stroke-width="2.5" stroke-linecap="round"/>
<path d="M134.936 92.6785C134.705 92.6826 134.474 92.6846 134.242 92.6846C113.837 92.6846 97.129 76.7764 95.729 56.6279C79.4876 59.1898 67.0645 73.3152 67.0645 90.3566C67.0645 109.213 82.2754 124.5 101.039 124.5C119.026 124.5 133.749 110.452 134.936 92.6785Z" fill="#D1E9B2"/>
<path fill-rule="evenodd" clip-rule="evenodd" d="M88.0901 89.2492C87.1017 88.3365 85.5685 88.4066 84.6656 89.4058C83.7627 90.405 83.832 91.9549 84.8204 92.8676L96.2286 103.402C97.6123 104.68 99.7589 104.582 101.023 103.183C101.076 103.124 101.076 103.124 101.127 103.063L117.407 83.269C118.263 82.2284 118.122 80.6834 117.093 79.8182C116.064 78.953 114.535 79.0952 113.679 80.1358L98.3732 98.745L88.0901 89.2492Z" fill="white" stroke="#6AB705" stroke-width="2.5" stroke-linecap="round"/>
<path fill-rule="evenodd" clip-rule="evenodd" d="M89.5449 60.1938C87.9691 60.7849 86.4299 61.5033 84.9429 62.3491C82.6322 63.6634 80.4475 65.2856 78.4478 67.2168C77.6281 68.0084 76.8591 68.8328 76.1411 69.6861M73.9191 72.6569C73.3481 73.5197 72.8226 74.4042 72.3427 75.307C71.9883 75.9737 71.6587 76.6505 71.354 77.3358" fill="white"/>
<path d="M89.9839 61.3641C90.6303 61.1216 90.9577 60.4011 90.7152 59.7547C90.4727 59.1083 89.7521 58.7809 89.1058 59.0234L89.9839 61.3641ZM84.9429 62.3491L85.5609 63.4356L84.9429 62.3491ZM78.4478 67.2168L77.5795 66.3176L78.4478 67.2168ZM75.1847 68.8812C74.7401 69.4095 74.808 70.198 75.3362 70.6425C75.8644 71.087 76.653 71.0192 77.0975 70.491L75.1847 68.8812ZM74.9615 73.3467C75.3425 72.771 75.1846 71.9955 74.6089 71.6145C74.0332 71.2335 73.2576 71.3914 72.8766 71.9671L74.9615 73.3467ZM72.3427 75.307L73.4465 75.8937L72.3427 75.307ZM70.2118 76.8279C69.9314 77.4587 70.2154 78.1975 70.8462 78.4779C71.477 78.7584 72.2157 78.4744 72.4962 77.8436L70.2118 76.8279ZM89.1058 59.0234C87.4689 59.6375 85.8698 60.3838 84.3249 61.2626L85.5609 63.4356C86.99 62.6227 88.4694 61.9323 89.9839 61.3641L89.1058 59.0234ZM84.3249 61.2626C81.924 62.6282 79.6551 64.3131 77.5795 66.3176L79.3161 68.1159C81.24 66.2581 83.3404 64.6987 85.5609 63.4356L84.3249 61.2626ZM77.5795 66.3176C76.7287 67.1391 75.9304 67.9951 75.1847 68.8812L77.0975 70.491C77.7879 69.6706 78.5274 68.8776 79.3161 68.1159L77.5795 66.3176ZM72.8766 71.9671C72.2835 72.8634 71.7376 73.7824 71.239 74.7203L73.4465 75.8937C73.9077 75.0261 74.4127 74.176 74.9615 73.3467L72.8766 71.9671ZM71.239 74.7203C70.8708 75.413 70.5284 76.116 70.2118 76.8279L72.4962 77.8436C72.7891 77.1849 73.1058 76.5345 73.4465 75.8937L71.239 74.7203Z" fill="#88C537"/>
</svg>
